<svg xmlns="http://www.w3.org/2000/svg" width="891.522" height="611.239" xmlns:v="https://vecta.io/nano"><path d="M860 557.113l.614-37.775 25.544-46.732-25.448 40.807.276-16.985 17.605-33.8-17.532 29.316.496-30.548 18.852-26.918-18.774 22.114.3-56.015-1.948 74.154.16-3.06-19.167-29.34 18.86 35.2-1.786 34.117-.053-.906-22.096-30.874 22.03 34.073-.223 4.267-.04.064.018.35-4.53 86.558h6.054l.726-44.7 21.976-34-21.92 30.63zM204.622 431.216c0 77.052-45.806 103.956-102.3 103.956S0 508.268 0 431.216s102.3-175.074 102.3-175.074 102.3 98.022 102.3 175.074z" fill="#e6e6e6"/><g fill="#3f3d56"><path d="M98.584 523.385l1.048-64.485 43.607-79.778-43.443 69.662.47-28.996 30.054-57.718-29.93 50.045.847-52.15 32.182-45.95-32.05 37.75.53-95.623-3.326 126.588.273-5.222-32.72-50.084 32.195 60.11-3.048 58.242-.09-1.546-37.72-52.706L95.07 449.7l-.382 7.284-.068.11.03.598-7.735 147.765H97.25l1.24-76.324 37.514-58.024-37.42 52.287z"/><path d="M291.492 259.68v3.874H185.367c-16.3 0-31.913 6.47-43.432 18s-18 27.142-18 43.432v224.84c0 16.3 6.47 31.913 18 43.432s27.142 18 43.432 18h582.21c16.3 0 31.913-6.47 43.432-18s18-27.142 18-43.432v-224.84c0-16.3-6.47-31.913-18-43.432s-27.142-18-43.432-18H367.034v-3.874z"/></g><path d="M185.795 276.627H767.15c25.334 0 45.87 20.538 45.872 45.872v225.92c0 25.334-20.538 45.87-45.872 45.872H185.795c-25.334 0-45.87-20.538-45.872-45.872V521.01c6.72 2.735 14.36 1.948 20.382-2.1s9.635-10.825 9.64-18.08v-128.81c-.005-7.255-3.62-14.033-9.64-18.08s-13.662-4.834-20.382-2.1v-29.344c0-25.334 20.538-45.87 45.872-45.872z" fill="#fff"/><circle cx="356.903" cy="396.405" r="64.39" fill="#ff6584"/><path d="M558.824 594.832h-315.88c-.396.005-.79-.026-1.18-.094L391.16 335.962a10.46 10.46 0 0 1 18.209 0l105.067 181.97z" fill="#654ea3"/><path opacity=".2" d="M558.824 594.832h-107.85l58.658-85.21 49.19 85.21z"/><path d="M734.704 594.832h-273.2l125.742-182.658c4.523-6.568 15.404-6.977 20.72-1.24.357.39.69.805.993 1.24z" fill="#654ea3"/><path d="M478.826 62.857c0 34.715-14.946 35.793-39.295 35.793s-48.88-1.08-48.88-35.793S410.39 0 434.74 0s44.087 28.142 44.087 62.857z" fill="#2f2e41"/><g fill="#a0616a"><path d="M418.35 64.27s10.394 43.467 6.615 48.192 32.128 15.12 32.128 15.12l15.12-41.577-8.504-.945s-12.284-2.835-8.504-26.458-36.852 5.67-36.852 5.67z"/><circle cx="434.887" cy="45.845" r="30.71"/></g><g fill="#2f2e41"><path d="M404.65 218.767l-21.733 18.9s-66.145 24.568-51.026 62.366 43.467 93.548 43.467 93.548l7.56 17.954h18.9l12.284-5.67-2.835-7.56s-6.615-10.394-6.615-16.064-11.34-70.87-18.9-75.595c0 0 37.797-36.852 65.2-38.742s34.962-8.504 50.08 0 74.65 24.568 74.65 24.568 32.128 58.586 48.192 68.98 29.293 45.357 29.293 45.357l26.458-4.725-13.23-27.403s-13.23-19.844-13.23-28.348-43.467-90.714-74.65-103.943-46.298-25.392-46.298-25.392l-71.458-19.38z"/><path d="M382.916 398.304s-6.615-4.725-11.34 4.725-17.954 31.183-17.954 31.183-38.742 29.293-9.45 36.852c0 0 14.174.945 38.742-16.064s42.522-25.513 43.467-28.348-5.67-34.962-12.284-34.962-4.725 15.12-12.284 15.12a86.98 86.98 0 0 0-16.064 1.89zm305.34 9.136a19.38 19.38 0 0 0-9.998-11.08 19.36 19.36 0 0 0-14.908-.68c-1.45.544-2.434 1.1-2.623 1.678-.945 2.835-9.496 4.235-10.418 2.6s-7.536-6.37-2.8 11.584 18.9 56.696 26.458 63.3 34.018 5.67 35.907-.945-.945-18.9-4.725-23.623-10.394-19.844-11.34-25.513c-.445-2.668-2.982-10.15-5.544-17.322z"/></g><path d="M518.757 274.052s7.435 32.045 22.03 24.515-16.003-37.52-16.003-37.52zm-81.264-17.954s7.435 32.045 22.03 24.515-16.003-37.52-16.003-37.52z" fill="#a0616a"/><path d="M509.537 203.648c-10.933 3.364-18.124 3.732-21.573 7.115-.43.41-.8.88-1.106 1.39-2.835 4.725-15.12 6.615-31.183 2.835-5.382-1.412-10.978-1.822-16.508-1.2-5.5.558-11.018 1.72-21.29 1.2-17.925-.898-26.496-59.587-30.56-75.31-.217-.86-.425-1.587-.624-2.173-3.78-11.34 16.064-22.678 18.9-25.513s11.34-14.174 19.163-15.355c7.815-1.18 19.58 15.355 19.58 15.355s18.426-22.206 16.536-27.875 17.954-1.9 21.733-2.835c2.136-.54 11.056 1.795 18.417 3.93 6.29 1.817 10.797 7.344 11.31 13.872l.387 5.008c2.343 30.86 6.2 96.676-3.184 99.558z" fill="#e6e6e6"/><path d="M439.167 213.778c-5.5.558-11.018 1.72-21.29 1.2-17.925-.898-26.496-59.587-30.56-75.31.68-4.895 1.266-7.843 1.266-7.843l5.197 7.087 31.655 52.444c2.702 4.63 8.25 13.37 13.73 22.414z" opacity=".1"/><path d="M394.255 128.054l-8.504 3.78s-11.34 56.696 8.504 85.044 27.403 33.073 31.183 37.797a10.58 10.58 0 0 0 9.449 3.78c0 0-3.78 9.45 2.835 9.45s31.183-9.45 24.568-12.284-13.23-7.56-11.34-12.284-21.733-40.632-28.348-51.97-28.348-63.3-28.348-63.3z" fill="#e6e6e6"/><path d="M509.537 203.648c-10.933 3.364-18.124 3.732-21.573 7.115-.87-9.336-.832-18.133.784-25.07 5.808-24.89 10.19-78.79 9.922-92.13-.032-1.583.306.945 1.9.945v.945c6.993 0 8.958-2.485 10.923 4.224l1.238 4.413c2.343 30.86 6.2 96.676-3.184 99.558z" opacity=".1"/><path d="M497.252 88.367h2.896c7-.003 13.146 4.603 15.114 11.31 3.6 12.738 6.432 25.686 8.45 38.77 5.67 34.963 12.284 121.896 11.34 123.786s11.34 11.34 5.67 13.23-16.064 5.67-20.79 6.615-14.174-8.504-14.174-8.504-19.844-59.53-13.23-87.88 4.725-97.328 4.725-97.328z" fill="#e6e6e6"/><path d="M461.366 24.008c0 9.402-12.898 17.024-28.8 17.024S402 46.07 402 36.667s14.644-29.682 30.555-29.682 28.8 7.622 28.8 17.024zm-70.452 44.74s-1.176 31.648 30.273 29.902-4.25-27.052-4.25-27.052z" fill="#2f2e41"/><path fill="#3f3d56" d="M3.522 604.022h888v2.24h-888z"/></svg>