<svg xmlns="http://www.w3.org/2000/svg" width="761.717" height="680.93" xmlns:v="https://vecta.io/nano"><path d="M309.717 174.594H649.78v92.408m-122.063 375H187.654v-92.408" fill="none" stroke="#654ea3" stroke-miterlimit="10" stroke-width="2" stroke-dasharray="12"/><path d="M11.025-.002H279.24a11.03 11.03 0 0 1 11.025 11.025v501.88c0 6.09-4.936 11.025-11.025 11.025H11.025c-2.924.001-5.73-1.16-7.798-3.227s-3.23-4.872-3.23-7.796V11.025c-.001-2.925 1.16-5.73 3.23-7.8s4.874-3.23 7.8-3.228z" fill="#3e3c55"/><path d="M216.258 21.437c-1.715 11.346-11.45 19.746-22.924 19.783h-99.1c-11.476-.037-21.2-8.44-22.924-19.786h-52.5a10.9 10.9 0 0 0-10.9 10.9L7.9 502.438a10.9 10.9 0 0 0 10.9 10.9l250.726.006c6.02 0 10.9-4.88 10.9-10.9l.01-470.108c0-6.02-4.88-10.9-10.9-10.9z" fill="#e6e6e6"/><g fill="#dbdbdb"><rect width="65.404" height="4.088" rx="1.42" x="111.802" y="22.937"/><circle cx="191.105" cy="24.573" r="2.453"/></g><rect width="243" height="424" rx="16" fill="#fff" x="23.717" y="57"/><g fill="#654ea3"><path d="M88.028 144.048h28.3v6.815h-28.3zm116.382 0h9.96v6.815h-9.96zm19.922 0h9.96v6.815h-9.96zm-98.034 0h67.628v6.815h-67.628zM52.38 188.085h28.3v6.815h-28.3zm116.382 0h9.96v6.815h-9.96zm19.92 0h9.96v6.815h-9.96zm-98.033 0h67.628v6.815H90.65zm78.636-28.835h28.3v6.815h-28.3zm38.27 0h28.3v6.815h-28.3zm-155.176 0h9.96v6.815h-9.96zm19.92 0h9.96v6.815H72.3zm19.922 0h67.628v6.815H92.222zm18.348 14.68h28.3v6.815h-28.3zm-38.27 0h28.3v6.815H72.3zm-19.92 0h9.96v6.815h-9.96zm173.525 0h9.96v6.815h-9.96zm-77.59 0h67.628v6.815h-67.628z"/><rect width="138" height="43" rx="12" x="75.717" y="269"/></g><rect width="138" height="43" rx="12" fill="#e6e6e6" x="75.717" y="345"/><path d="M554.48 292.092h199.056a8.18 8.18 0 0 1 8.182 8.182v372.474a8.18 8.18 0 0 1-8.182 8.182H554.48a8.18 8.18 0 0 1-8.186-8.182V300.276a8.18 8.18 0 0 1 8.186-8.184z" fill="#3e3c55"/><path d="M706.794 308.003c-1.273 8.42-8.497 14.655-17.013 14.682h-73.546c-8.517-.027-15.74-6.262-17.013-14.683h-38.955a8.09 8.09 0 0 0-8.087 8.087l-.013 348.9a8.09 8.09 0 0 0 8.087 8.087H746.33c2.145 0 4.202-.852 5.718-2.37s2.37-3.574 2.37-5.718l.008-348.892a8.09 8.09 0 0 0-8.087-8.087z" fill="#e6e6e6"/><g fill="#dbdbdb"><rect width="48.54" height="3.034" rx="1.42" x="629.272" y="309.117"/><circle cx="688.126" cy="310.331" r="1.82"/></g><g fill="#fff"><g stroke="#3e3c55"><rect width="180" height="315" rx="16" stroke="none" x="564.171" y="333"/><rect x="564.671" y="333.5" width="179" height="314" rx="15.5" fill="none"/></g><g stroke="#707070"><path stroke="none" d="M585.17 399h136v38h-136z"/><path fill="none" d="M586.17 400h134v36h-134z" stroke-width="2"/></g><g stroke="#3e3c55"><path stroke="none" d="M602.17 492h103v32h-103z"/><path fill="none" d="M603.17 493h101v30h-101z" stroke-width="2"/><path stroke="none" d="M602.17 541h103v32h-103z"/><path fill="none" d="M603.17 542h101v30h-101z" stroke-width="2"/></g></g></svg>