<svg xmlns="http://www.w3.org/2000/svg" xmlns:xlink="http://www.w3.org/1999/xlink" width="886.351" height="491.631" xmlns:v="https://vecta.io/nano"><style><![CDATA[.B{fill:#3f3d56}.C{fill:#654ea3}]]></style><circle cx="232.396" cy="103.246" r="50.763" fill="#ff6584"/><path d="M391.582 259.678H142.556a5.08 5.08 0 0 1-.931-.074l117.778-204.01c1.463-2.587 4.205-4.186 7.177-4.186s5.714 1.6 7.177 4.186l82.83 143.457z" class="B"/><path opacity=".2" d="M391.582 259.678h-85.024l46.244-67.176 38.78 67.176z"/><path d="M530.238 259.678H314.85l99.13-144c3.566-5.178 12.144-5.5 16.336-.977a9.83 9.83 0 0 1 .783.977z" class="B"/><circle cx="593.463" cy="210.82" r="15.296" class="C"/><g class="B"><path d="M594.938 256.894h-3.133l1.428-48.378 1.705 48.378z"/><path d="M593.5 217.685l3.364-4.654-3.4 5.806-.368-.645.414-.507zm-.37 4.7l-3.364-4.653 3.4 5.805.368-.645-.414-.507z"/></g><circle cx="733.78" cy="210.82" r="15.296" class="C"/><g class="B"><path d="M735.254 256.894h-3.133l1.43-48.378 1.704 48.378z"/><path d="M733.826 217.685l3.364-4.654-3.4 5.806-.37-.645.415-.507zm-.368 4.7l-3.364-4.653 3.4 5.805.368-.645-.414-.507z"/></g><circle cx="637.775" cy="188.846" r="22.592" class="C"/><g class="B"><path d="M639.952 256.894h-4.627l2.11-71.45 2.518 71.45z"/><path d="M637.843 198.985l4.967-6.872-5.035 8.574-.545-.953.613-.75zm-.545 6.94l-4.967-6.872 5.035 8.573.545-.952-.613-.75z"/></g><circle cx="692.868" cy="188.846" r="22.592" class="C"/><g class="B"><path d="M695.046 256.894h-4.627l2.11-71.45 2.518 71.45z"/><path d="M692.936 198.985l4.968-6.872-5.036 8.574-.544-.953.612-.75zm-.544 6.94l-4.968-6.872 5.036 8.573.544-.952-.612-.75z"/></g><circle cx="549.969" cy="188.846" r="22.592" class="C"/><g class="B"><path d="M552.146 256.894h-4.627l2.1-71.45 2.517 71.45z"/><path d="M550.037 198.985l4.967-6.872-5.035 8.574-.544-.953.612-.75zm-.544 6.94l-4.968-6.872 5.036 8.573.544-.952-.612-.75z"/></g><path d="M817.25 491.63H79.984c-25.27 0-48.622-13.482-61.257-35.367s-12.635-48.85 0-70.734 35.987-35.367 61.257-35.367h735.633a27.21 27.21 0 0 0 27.205-27.205 27.21 27.21 0 0 0-27.205-27.205H55.5v-43.53h760.118c39.065 0 70.734 31.67 70.734 70.734s-31.67 70.734-70.734 70.734H79.984c-9.72 0-18.7 5.185-23.56 13.603s-4.86 18.788 0 27.205 13.84 13.603 23.56 13.603H817.25z" fill="#e6e6e6"/><g fill="#fff"><path d="M82.704 272.9h33.735v2.176H82.704z"/><use xlink:href="#B"/><path d="M274.23 272.9h33.735v2.176H274.23z"/><use xlink:href="#B" x="191.526"/><use xlink:href="#B" x="287.289"/><path d="M561.52 272.9h33.735v2.176H561.52z"/><use xlink:href="#B" x="478.815"/><use xlink:href="#B" x="574.578"/><path d="M82.704 370.84h33.735v2.176H82.704z"/><use xlink:href="#B" y="97.94"/><path d="M274.23 370.84h33.735v2.176H274.23z"/><use xlink:href="#B" x="191.526" y="97.94"/><use xlink:href="#B" x="287.289" y="97.94"/><path d="M561.52 370.84h33.735v2.176H561.52z"/><use xlink:href="#B" x="478.815" y="97.94"/><use xlink:href="#B" x="574.578" y="97.94"/><path d="M82.704 468.78h33.735v2.176H82.704z"/><use xlink:href="#B" y="195.88"/><path d="M274.23 468.78h33.735v2.176H274.23z"/><use xlink:href="#B" x="191.526" y="195.88"/><use xlink:href="#B" x="287.289" y="195.88"/><path d="M561.52 468.78h33.735v2.176H561.52z"/><use xlink:href="#B" x="478.815" y="195.88"/><use xlink:href="#B" x="574.578" y="195.88"/></g><path d="M591.868 86.374a20.85 20.85 0 0 1 10.13 2.617h-20.232a20.74 20.74 0 0 1 10.103-2.617zm-39.26-2.617a28.62 28.62 0 0 1 16.534 5.235h-33.046c4.83-3.4 10.6-5.238 16.512-5.235zM330.212 50.623C331.695 24.403 351.938 3.1 378.05.304s50.417 13.7 57.437 39.007l1.955-.05a53.67 53.67 0 0 1 51.482 38.538c15.798-6.94 34.3-2.342 44.995 11.192H366.547c-9.866.028-19.318-3.962-26.18-11.05a36.29 36.29 0 0 1-10.193-26.526q.016-.395.038-.8zM604.08 125.55a20.85 20.85 0 0 0-10.13 2.617h20.232a20.74 20.74 0 0 0-10.103-2.617zm39.262-2.618a28.62 28.62 0 0 0-16.534 5.235h33.046c-4.83-3.4-10.6-5.238-16.512-5.235zM865.737 89.8c-1.483-26.22-21.726-47.513-47.838-50.32s-50.417 13.7-57.437 39.007l-1.955-.05a53.67 53.67 0 0 0-51.482 38.538c-15.798-6.94-34.3-2.342-44.995 11.192h167.372c9.866.028 19.318-3.962 26.18-11.05a36.29 36.29 0 0 0 10.193-26.526q-.016-.395-.038-.8z" fill="#e6e6e6"/><path d="M773.604 461.223l-19.453-.01.002-3.088 19.453.01z" class="B"/><path d="M613.507 458.822l4.014.928 152.533.082 1.372-3.196c2.392-5.482 3.213-11.52 2.37-17.442-.657-4.414-2.303-8.8-6.042-10.704l-6.77-45.084-84.39-.15-32.65 26.334s-15.4-.277-23.768 10.14a24.45 24.45 0 0 0-5.114 13.466l-.33 5.42z" class="C"/><circle cx="647.009" cy="458.068" r="18.835" class="B"/><circle cx="647.009" cy="458.068" r="9.913" fill="#ccc"/><circle cx="739.95" cy="458.117" r="18.835" class="B"/><circle cx="739.95" cy="458.117" r="9.913" fill="#ccc"/><path d="M656.92 406.5l60.515.026v-.685l.014-17.53h-6.25l-32.35-.02-21.93 18.2zm67.93.034l24.08.013.013-18.215h-3.526l-5.562-.007-14.998-.006-.007 18.215z" fill="#fff"/><g class="B"><path d="M717.427 425.993l-3.088-.002.003-5.867 3.088.002zm-48.16-14.23l-.002 3.088-5.867-.003.002-3.088z"/><path d="M667.104 413.12h-.34c-3.564-.002-6.452-2.893-6.45-6.457h0a6.45 6.45 0 0 1 1.893-4.562c1.21-1.21 2.853-1.9 4.564-1.888h.34l-.007 12.907zm-52.37 25.493c4.82.524 9.32-2.494 10.663-7.153a9.98 9.98 0 0 0-5.218-11.732 24.45 24.45 0 0 0-5.114 13.466z"/></g><path d="M705.64 388.316l11.796 17.536.007-8.258-6.24-9.272-5.562-.006zm34.214.02l9.08 13.497v-8.258l-3.52-5.232-5.562-.007zm-49.63-.025l12.258 18.22h5.562l-12.258-18.22h-5.562z" fill="#f2f2f2"/><circle cx="50.058" cy="260.93" r="50.058" class="B"/><path d="M50.266 276l-25.05-25.05c-1.697-1.7-1.695-4.454.003-6.153s4.452-1.7 6.153-.003L49.85 263.27l58.964-67.24c1.586-1.803 4.333-1.982 6.138-.398s1.988 4.33.407 6.138z" class="C"/><defs ><path id="B" d="M178.467 272.9h33.735v2.176h-33.735z"/></defs></svg>