<svg xmlns="http://www.w3.org/2000/svg" xmlns:xlink="http://www.w3.org/1999/xlink" width="888" height="765.554" xmlns:v="https://vecta.io/nano"><style><![CDATA[.B{fill:#ffb8b8}.C{fill:#2f2e41}.D{fill:#654ea3}]]></style><path d="M655.933 18.2H624.36c2.95 7.23 2.105 15.45-2.25 21.93s-11.65 10.367-19.456 10.367h-138.57c-7.807-.001-15.102-3.887-19.456-10.367s-5.198-14.702-2.25-21.93H412.9a49.35 49.35 0 0 0-34.892 14.453c-9.254 9.253-14.453 21.805-14.453 34.892v625.4a49.35 49.35 0 0 0 14.453 34.892c9.253 9.254 21.795 14.463 34.892 14.463h243.043a49.35 49.35 0 0 0 34.892-14.453c9.254-9.253 14.453-21.805 14.453-34.892V67.536a49.35 49.35 0 0 0-14.453-34.892C681.582 23.4 669.02 18.2 655.933 18.2zm-2.666 742.3H411.4c-37.028-.042-67.035-30.05-67.077-67.077V67.077C344.354 30.048 374.36.042 411.4 0h241.877c37.028.042 67.035 30.05 67.076 67.077v113.167h4.168V263.5h-4.168v429.895c-.042 37.028-30.048 67.035-67.076 67.077zM411.4 2c-35.924.04-65.036 29.153-65.077 65.077v626.328c.04 35.924 29.153 65.037 65.077 65.077h241.877c35.924-.04 65.036-29.153 65.076-65.077V261.5h4.168v-79.266h-4.168V67.077C718.302 31.153 689.2 2.04 653.267 2z" fill="#e6e6e6"/><use xlink:href="#B" class="B"/><path d="M431.417 117.67c-1.932.002-3.498 1.568-3.5 3.5v206c.002 1.932 1.568 3.498 3.5 3.5h206c1.932-.002 3.498-1.568 3.5-3.5v-206c-.002-1.932-1.568-3.498-3.5-3.5z" fill="#fff"/><path d="M619.353 360.153H581.46c-2.37-21.08 2.86-36.79 0-45.472h37.894c-1.456 15.122-1.456 30.35 0 45.472z" class="D"/><path fill="#ccc" d="M374.912 411.17h319v144h-319z"/><path d="M600.417 221.56c0 36.35-29.47 65.82-65.82 65.82s-65.82-29.47-65.82-65.82 29.47-65.82 65.82-65.82a65.79 65.79 0 0 1 65.82 65.82z" class="D"/><path d="M367.616 403.418c-1.38.002-2.498 1.12-2.5 2.5v138c.001 1.38 1.12 2.5 2.5 2.5h313c1.38-.001 2.5-1.12 2.5-2.5v-138c-.001-1.38-1.12-2.5-2.5-2.5z" fill="#fff"/><g class="D"><use xlink:href="#C"/><use xlink:href="#D"/><path d="M393.447 433.363a1.5 1.5 0 0 0-1.5 1.5v7.272a1.5 1.5 0 0 0 1.5 1.5h12.475a1.5 1.5 0 0 0 1.5-1.5v-7.272a1.5 1.5 0 0 0-1.5-1.5z"/><use xlink:href="#E"/><use xlink:href="#F"/><use xlink:href="#F" x="-32.96"/><path d="M519.178 506.2a1.5 1.5 0 0 0-1.5 1.5v7.273a1.5 1.5 0 0 0 1.5 1.5h107.858a1.5 1.5 0 0 0 1.5-1.5V507.7a1.5 1.5 0 0 0-1.5-1.5z"/><use xlink:href="#C" x="-134.403" y="25.147"/><use xlink:href="#C" x="-197.703" y="25.147"/><use xlink:href="#D" x="218.503" y="25.147"/><path d="M516.577 458.51a1.5 1.5 0 0 0-1.5 1.5v7.272a1.5 1.5 0 0 0 1.5 1.5h107.857a1.5 1.5 0 0 0 1.5-1.5v-7.272a1.5 1.5 0 0 0-1.5-1.5z"/><use xlink:href="#C" x="-37.286" y="49.425"/><use xlink:href="#C" x="26.014" y="49.425"/><use xlink:href="#D" x="-35.552" y="49.425"/><use xlink:href="#E" x="-36.418" y="49.425"/></g><path d="M541.32 191.425s12.882-4.6 21.163 13.802 21.163 38.646 21.163 38.646l-7.36 1.84s-1.84-12.882-6.44-14.722l1.84 16.563s-55.21 19.323-80.053-1.84l.92-6.44s-3.68.92-3.68 6.44l-2.76-2.76s2.76-5.52 11.042-12.882c5.436-4.832 7.303-14.024 7.945-19.77.48-4.8 2.4-9.34 5.508-13.03 5.503-6.378 15.53-13.157 30.714-5.847z" class="C"/><circle cx="533.455" cy="224.374" r="23.819" class="B"/><path d="M561.9 227.264c-9.17-6.028-16.595-12.97-21.506-21.23 0 0-16.83 16.984-27.117 17.833s-.935-20.38-.935-20.38l18.7-4.246 17.766 1.698 14.026 8.492z" class="C"/><path d="M524.417 243.17h18v18h-18z" class="B"/><path d="M568.757 277.83c-22.253 13.5-50.37 12.626-71.74-2.23a27.04 27.04 0 0 1 24.4-15.43h22c11.312-.001 21.425 7.047 25.34 17.66z" class="C"/><path fill="#3f3d56" d="M0 761.497h888v2.24H0z"/><path d="M626.8 583.18h37.894c2.37-17.488-2.86-33.814 0-45.472H626.8q-10.702 22.736 0 45.472z" fill="#ff6584"/><path d="M597.055 574.914H559.16c1.42-17.484 6.002-33.81 0-45.472h37.894q10.702 22.736 0 45.472z" class="D"/><path d="M286.63 316.073s13.022-4.65 21.393 13.952 21.393 39.066 21.393 39.066l-7.44 1.86s-1.86-13.022-6.51-14.882l1.86 16.743s-55.81 19.533-80.922-1.86l.93-6.51s-3.72.93-3.72 6.51l-2.8-2.8s2.8-5.58 11.162-13.022c5.495-4.884 7.383-14.176 8.032-19.985.486-4.85 2.427-9.442 5.568-13.17 5.563-6.447 15.7-13.3 31.047-5.91z" class="C"/><path d="M211.283 674.68l-32.43 48.087 30.194 30.194 3.914-7.828-6.7-15.656s1.118-14.538 5.032-18.452 21.248-27.4 21.248-27.4z" class="B"/><path d="M252.66 519.235s-6.15 9.733 6.7 51.67c0 0-59.987 101.243-50.482 107.953s35.23 21.56 41.94 17.086 55.5-156.02 55.5-156.02zM184.723 714.1l-9.785 9.785c-5.032 5.032-8.387 12.3 1.118 18.452s42.496 29.076 53.68 21.807-13.42-13.98-13.42-13.98-4.068-15.084-6.228-11.736-2.16 10.058-2.16 10.058z" class="C"/><g class="B"><path d="M302.985 700.96s17.893 33 17.893 36.904-1.118 15.097-1.118 15.097l34.108 8.387 11.742-5.592-3.914-10.065s-21.248-7.27-25.72-21.248l-9.506-28.517z"/><circle cx="282.296" cy="349.252" r="23.485"/><path d="M288.447 369.38l-11.212 32.216-24.574-10.968s16.775-25.72 16.775-29.076z"/></g><g class="C"><path d="M291.802 484.008h-29.635s-21.248 32.43-8.946 66.54c2.3 6.94 4.187 14.017 5.62 21.2 4.292 19.894 8.566 46.84 12.946 71.603 6.152 34.782 12.513 65.253 19.428 65.806 13.98 1.118 41.162.932 41.162-4.66s-18.208-167.36-18.208-167.36l-3.914-6.7-.74-29.227c-.243-9.594-8.115-17.23-17.712-17.183zm29.355 253.578s-6.43 10.904-4.753 18.732 4.473 6.7 16.775 7.828 54.238 1.118 54.238-6.7-32.714-17.994-32.852-14.868-1.256 9.277 2.1 10.395.28.28.28.28z"/><path d="M264.387 499.592c4.373 0 13.778-11.232 18.7-6.3 3.58 3.58 6.618 7.02 9.298 10.053 7.693 8.71 14.42 16.69 19.093 10.964.706-.866-1.67 1.134.312-.214a4.79 4.79 0 0 0 1.931-5.2c-6.78-21.246-11.004-41.6-5.612-58.6.4-1.35.59-2.753.567-4.16q.001-.31.03-.618c.285-3.137.214-14.374-12.66-27.248-11.766-11.766-14.024-18.997-14.32-22.26-.07-.76-19.037-20.44-19.037-20.44a4.77 4.77 0 0 0-5.711 1.603l-6.075 8.354c-6.604 13.076-9.487 27.716-8.332 42.32 1.645 18.955 4.5 56.442 6.846 69.963a4.94 4.94 0 0 0 1.829 3.116 4.71 4.71 0 0 0 4.821.571c2.61-1.215 5.446-1.86 8.324-1.895z"/></g><path opacity=".2" d="M271.168 645.108l-11.02-73.426 8.963 79.266 2.057-5.84z"/><use xlink:href="#B" x="5" y="21" class="B"/><path d="M261.23 410s9.085-5.923 21.56 4.6 14.968 19.958 14.968 19.958l-29.382 17.463s-28.704-30.563-7.145-42.03zm46.215-59.7c-9.27-6.093-16.776-13.112-21.74-21.46 0 0-17.014 17.168-27.4 18.027s-.945-20.602-.945-20.602l18.904-4.292 17.96 1.717 14.178 8.584z" class="C"/><ellipse cx="258.917" cy="348.669" rx="2.5" ry="4.5" class="B"/><defs ><path id="B" d="M280.16 406.386l16 24.783 52.034-.415s21.874-12.353 26.273 3.935c1.506 5.578-21.39 7.088-23.547 7.218-5.4.327-59.15 9.654-62.47 4.878s-20.777-21.464-20.777-21.464z"/><path id="C" d="M588.548 433.363a1.5 1.5 0 0 0-1.5 1.5v7.272a1.5 1.5 0 0 0 1.5 1.5h42.824a1.5 1.5 0 0 0 1.5-1.5v-7.272a1.5 1.5 0 0 0-1.5-1.5z"/><path id="D" d="M426.397 433.363a1.5 1.5 0 0 0-1.5 1.5v7.272a1.5 1.5 0 0 0 1.5 1.5h12.476a1.5 1.5 0 0 0 1.5-1.5v-7.272a1.5 1.5 0 0 0-1.5-1.5z"/><path id="E" d="M460.214 433.363a1.5 1.5 0 0 0-1.5 1.5v7.272a1.5 1.5 0 0 0 1.5 1.5h107.858a1.5 1.5 0 0 0 1.5-1.5v-7.272a1.5 1.5 0 0 0-1.5-1.5z"/><path id="F" d="M485.36 506.2a1.5 1.5 0 0 0-1.5 1.5v7.273a1.5 1.5 0 0 0 1.5 1.5h12.476a1.5 1.5 0 0 0 1.5-1.5V507.7a1.5 1.5 0 0 0-1.5-1.5z"/></defs></svg>