<svg xmlns="http://www.w3.org/2000/svg" xmlns:xlink="http://www.w3.org/1999/xlink" width="945.48" height="723.06" xmlns:v="https://vecta.io/nano"><defs><linearGradient id="A" x1="566.02" y1="317.631" x2="919.77" y2="317.631" gradientUnits="userSpaceOnUse"><stop offset="0" stop-color="gray" stop-opacity=".25"/><stop offset=".54" stop-color="gray" stop-opacity=".12"/><stop offset="1" stop-color="gray" stop-opacity=".1"/></linearGradient><clipPath id="B" transform="translate(-130 -89.47)"><path transform="matrix(.990533 .137272 -.137272 .990533 50.43 -98.88)" fill="#654ea3" d="M448.64 159.18h586.78v313.9H448.64z"/></clipPath><linearGradient id="C" x1="636.814" y1="244.252" x2="658.194" y2="89.976" xlink:href="#A"/><linearGradient id="D" x1="367.4" y1="723.06" x2="367.4" y2="213.51" xlink:href="#A"/><linearGradient id="E" x1="367.14" y1="582.74" x2="367.14" y2="556.61" xlink:href="#A"/></defs><path transform="matrix(.137272 -.990533 .990533 .137272 197.04 919.76)" fill="url(#A)" d="M566.02 5.62h353.76v622.5H566.02z"/><path fill="#fff" d="M331.8 14.742l607.286 84.16-47.235 340.843-607.286-84.16z"/><g opacity=".3"><path fill="#654ea3" d="M342.972 30.91l581.225 80.548-43.09 310.938-581.225-80.548z"/><g clip-path="url(#B)"><path fill="#654ea3" stroke="#fff" stroke-miterlimit="10" stroke-width="5" d="M305.9 25.78l235.9 391.06 143.5 19.9 250.56-145.67L738.08 29.6 387.52 395.45l-200.43-75.3L545.2 5.32l292 452.46"/></g></g><path d="M704.85,151.82c-4.16,30-65.87,92.74-65.87,92.74s-46.66-77.76-42.5-107.76a54.71,54.71,0,1,1,108.38,15Z" transform="translate(-130 -89.47)" fill="url(#C)"/><path d="M571.3 63.3c-3.9 28.14-61.8 87-61.8 87s-43.77-72.94-39.87-101.08c3.89-28.07 29.8-47.67 57.87-43.78s47.67 29.8 43.78 57.87z" fill="#654ea3"/><ellipse cx="651.03" cy="141.65" rx="25.72" ry="25.66" transform="matrix(.137272 -.990533 .990533 .137272 291.34 677.6)" fill="#fff"/><path fill="url(#D)" d="M0 213.5v509.55h734.8V213.5H0z"/><path fill="#fff" d="M10.9 245.2h716.12V714H10.9z"/><path fill="#f5f5f5" d="M10.9 222.9h716.12v34.5H10.9z"/><circle cx="38.15" cy="239.64" r="8.36" fill="#ff5252"/><circle cx="61.15" cy="239.64" r="8.36" fill="#ff0"/><circle cx="84.14" cy="239.64" r="8.36" fill="#69f0ae"/><path fill="#654ea3" opacity=".5" d="M301.8 370.55h131.7v14.1H301.8z"/><path d="M206.7 431.18h144.24v14.1H206.7zm321.93 14.12H384.4v-14.1h144.24zm-322.46 16.2H528.1v14.1H206.17zm0 30.3H528.1v14.1H206.17z" fill="#e0e0e0"/><path fill="url(#E)" d="M300.25 556.6h133.8v26.13h-133.8z"/><path fill="#654ea3" d="M301.3 558.98H433v21.38H301.3z"/></svg>