<svg xmlns="http://www.w3.org/2000/svg" xmlns:xlink="http://www.w3.org/1999/xlink" width="814.27" height="615.44" xmlns:v="https://vecta.io/nano"><defs><linearGradient id="A" x1="685.32" y1="708.58" x2="685.32" y2="685.31" gradientUnits="userSpaceOnUse"><stop offset="0" stop-color="gray" stop-opacity=".25"/><stop offset=".54" stop-color="gray" stop-opacity=".12"/><stop offset="1" stop-color="gray" stop-opacity=".1"/></linearGradient><linearGradient id="B" x1="684.46" y1="581.843" x2="684.46" y2="144.252" xlink:href="#A"/><linearGradient id="C" x1="439.15" y1="752.996" x2="439.15" y2="292.058" xlink:href="#A"/><linearGradient id="D" x1="439.67" y1="713.879" x2="439.67" y2="327.268" gradientUnits="userSpaceOnUse"><stop offset="0" stop-opacity=".1"/><stop offset=".55" stop-opacity=".07"/><stop offset="1" stop-opacity=".02"/></linearGradient><linearGradient id="E" x1="291.08" y1="760.053" x2="291.08" y2="402.012" xlink:href="#A"/></defs><path d="M572.78 396.13s16.07 110.1 110.1 146.67l-380.68.52c93.92-36.83 109.7-147 109.7-147z" fill="#e0e0e0"/><path transform="matrix(.999999 -.001396 .001396 .999999 -193.82 -141.33)" fill="url(#A)" d="M493.16 685.34h384.26v23.26H493.16z"/><path fill="#f5f5f5" d="M302.206 543.318l380.67-.532.025 17.94-380.67.532z"/><path d="M994.22 142.28l-619.08.85c-6.85 0-12.4 5.83-12.4 13l.48 361.2v12c0 27.44 21.33 49.66 47.55 49.62l548.93-.76c26.23 0 47.46-22.3 47.42-49.75v-12l-.48-361.2c-.01-7.17-5.58-12.97-12.43-12.96z" transform="translate(-192.86 -142.28)" fill="url(#B)"/><path d="M188.2 11.8h606.84c5.937 0 10.75 4.813 10.75 10.75v345.28H177.43V22.55c0-5.937 4.813-10.75 10.75-10.75z" fill="#fff"/><path d="M765.4 425.23l-546 .75a41.15 41.15 0 0 1-41.26-41.09v-17.57l628.35-.87v17.58c.028 22.723-18.367 41.167-41.1 41.2z" fill="#f5f5f5"/><path fill="#654ea3" d="M208.754 40.07l568.62-.794.4 287.4-568.62.794z"/><g transform="matrix(.999999 -.001396 .001396 .999999 -193.58 -141.67)"><rect x="291.13" y="290.71" width="296" height="458.84" rx="17.17" fill="url(#C)"/><path fill="url(#D)" d="M311.85 325.76h255.62V710.6H311.85z"/></g><rect x="300.13" y="297.65" width="277.99" height="437.71" rx="17.17" transform="matrix(.999999 -.001396 .001396 .999999 -193.57 -141.67)" fill="#fff"/><path fill="#654ea3" d="M126.02 189.42h240.06v367.12H126.02z"/><g fill="#dbdbdb"><ellipse cx="246.69" cy="574.77" rx="9.89" ry="10.13"/><ellipse cx="397.81" cy="315.27" rx="3.3" ry="3.38" transform="matrix(.999999 -.001396 .001396 .999999 -193.3 -141.73)"/><rect x="414.29" y="313.19" width="42.87" height="3.38" rx="1.43" transform="matrix(.999999 -.001396 .001396 .999999 -193.3 -141.68)"/></g><g transform="matrix(.999999 -.001396 .001396 .999999 -193.66 -141.88)"><rect x="193.08" y="400.71" width="195.96" height="356.89" rx="10" fill="url(#E)"/><rect x="197.6" y="406.59" width="186.94" height="342.74" rx="10" fill="#fff"/></g><path fill="#654ea3" d="M25.64 288.634l144.73-.202.39 278.92-144.73.202z"/><g fill="#dbdbdb"><ellipse cx="97.39" cy="587.95" rx="11.54" ry="11.82"/><ellipse cx="268.93" cy="417.85" rx="2.31" ry="2.36" transform="matrix(.999999 -.001396 .001396 .999999 -193.44 -141.91)"/><rect x="279.31" y="416.03" width="35.77" height="3.55" rx="1.5" transform="matrix(.999999 -.001396 .001396 .999999 -193.44 -141.87)"/></g></svg>