<svg xmlns="http://www.w3.org/2000/svg" xmlns:xlink="http://www.w3.org/1999/xlink" width="888" height="769.428" xmlns:v="https://vecta.io/nano"><path d="M49.23 759.086S34.83 732.503 0 743.998zm.87-.65s-17.8-22.64 7.896-50.882z" fill="#e6e6e6"/><path fill="#3f3d56" d="M0 757.412h888v2H0z"/><use xlink:href="#B" fill="#fbbebe"/><use xlink:href="#B" x="-1" y="-5" opacity=".1"/><path d="M727.18 199.643h0c-23.737 0-42.98 21.355-42.98 47.698v33.47h10.293l5.96-12.4-1.5 12.4h66.162l5.418-11.273-1.354 11.273h7.45v-26.28c0-30.314-22.143-54.888-49.458-54.888z" fill="#2f2e41"/><path d="M655.713 501.293s-8.545 36.318 2.848 39.88 8.545-39.88 8.545-39.88z" fill="#fbbebe"/><path fill="#d0cde1" d="M669.955 316.854l-5.697 6.41 1.425 123.197-12.82 58.393 28.485 2.85 14.242-117.5-4.272-59.818-21.364-13.53z"/><path opacity=".1" d="M669.697 316.854l-5.697 6.41 1.424 123.197-12.818 58.393 28.485 2.85 14.242-117.5-4.273-59.818-21.363-13.53z"/><g fill="#fbbebe"><circle cx="723.376" cy="245.535" r="30.597"/><path d="M705.834 263.894s8.975 46.508 4.896 51.403 43.244-8.975 43.244-8.975-15.503-31.82-7.343-49.77zm77.348 203.93s8.545 36.318-2.848 39.88-8.545-39.88-8.545-39.88zM717.3 504.497s-12.106 72.636-11.394 83.318 0 12.106 0 12.106-12.106 31.333-15.667 49.136-11.394 40.6-11.394 40.6-9.258 20.65-1.424 20.65 18.515-2.848 18.515-2.848c-.028-8.226 2.733-16.218 7.833-22.67 8.545-10.798 34.182-61.36 34.182-67.768s4.273-24.924 4.273-24.924l16.38-79.045z"/></g><path d="M667.463 456.073s-12.106 61.242-1.424 62.666 25.636-9.258 44.863 2.848 51.272 9.258 51.272 9.258 22.076-56.257 2.136-69.787-96.848-4.985-96.848-4.985zm13.53 245.68a18.97 18.97 0 0 1 9.97-1.424 13.01 13.01 0 0 0 9.258-2.136s-5.697 20.65-4.985 28.485-2.136 41.303-17.1 37.742-19.227-14.242-13.53-32.757 4.273-39.88 4.273-39.88 10.393-10.735 12.318-9.284-.212 19.254-.212 19.254zm47.712 26.348s-7.12-15.667-15.667-1.424-9.258 17.803-9.258 17.803-24.212 22.076-7.12 24.212 30.62-.712 30.62-4.273 8.545-2.848 9.258-5.697-1.424-29.197-1.424-29.197z" fill="#2f2e41"/><g fill="#d0cde1"><path d="M744.728 287.657h0s-29.91 5.697-33.47 4.985c-.802-.142-1.613-.228-2.427-.257a35.99 35.99 0 0 0-19.877 4.929c-9.917 5.76-24.695 16.012-24.695 25.95 0 14.954 19.227 40.59 19.227 40.59s-17.803 61.242-16.38 66.94-10.682 24.924-2.848 31.333 82.606 0 96.136 6.41 7.12-85.454 7.12-85.454 36.318-83.318 17.803-91.15c-5.99-2.535-11.162-4.473-15.416-5.935a32.59 32.59 0 0 0-25.174 1.663z"/><path d="M772.5 292.642l16.34 2.7s7.16 7.27 7.16 10.83-1.424 157.378-3.56 162.363-25.636 2.848-25.636 2.848l4.273-87.6z"/></g><g fill="#2f2e41"><path d="M739.397 212.782a22.54 22.54 0 0 0-17.785-9.076h-.844c-16.27 0-29.458 14.722-29.458 32.882h0 5.45l.88-6.7 1.29 6.7h32.332l2.71-5.67-.677 5.67h6.36q4.452 22.11-12.794 44.22h10.835l5.418-11.34-1.354 11.34h20.655l4.063-26.08c0-19.53-11.348-36.093-27.082-41.948z"/><circle cx="745.336" cy="199.43" r="16.098"/></g><path d="M563.687 180.243h-4.167V66.077c0-17.525-6.962-34.332-19.353-46.723S510.968 0 493.443 0H251.565c-17.525 0-34.332 6.962-46.723 19.353s-19.353 29.2-19.353 46.723v626.328c0 17.525 6.962 34.332 19.353 46.723s29.2 19.353 46.723 19.353h241.878c17.525 0 34.332-6.962 46.723-19.353s19.353-29.2 19.353-46.723V261.51h4.167z" fill="#3f3d56"/><path d="M496.11 17.19h-31.573c2.95 7.23 2.105 15.45-2.25 21.93s-11.65 10.367-19.456 10.367h-138.57c-7.807-.001-15.102-3.887-19.456-10.367s-5.198-14.702-2.25-21.93h-29.49c-13.087 0-25.638 5.2-34.892 14.453S203.72 53.45 203.72 66.536v625.41c0 13.087 5.2 25.638 14.453 34.892S239.98 741.3 253.067 741.3H496.11c13.087 0 25.638-5.2 34.892-14.453s14.453-21.805 14.453-34.892V66.536c0-13.087-5.2-25.638-14.453-34.892S509.196 17.19 496.11 17.19z" opacity=".2"/><g fill="#654ea3"><path d="M485.548 436.135h-46.824v-11.273h46.824zm-192.5 0h-16.475v-11.273h16.475zm-32.95 0h-16.475v-11.273h16.475zm162.152 0H310.4v-11.273h111.86zm-70.238 72.838h-16.475V497.7h16.475zm-32.95 0h-16.475V497.7h16.475zm162.15 0H369.355V497.7h111.858zm-130.068-47.69H304.32V450h46.824zm-63.3 0H241.02V450h46.824zm223.716 0h-16.475V450h16.475zm-32.952 0H366.753V450H478.6zm-77.172 13.006h46.824v11.273h-46.824zm63.3 0h46.824v11.273h-46.824zm-223.718 0h16.475v11.273H241.02zm32.952 0H385.83v11.273H273.972z"/><circle cx="374.773" cy="240.562" r="89.47"/></g><circle cx="368.383" cy="243.757" r="28.758" fill="#fff"/><path d="M369.257 245.48c-1.79-2.754-.885-6.5-2.14-9.534-1.97-4.766-8.095-5.883-13.234-6.318-3.404-.437-6.85-.428-10.254.027a9.84 9.84 0 0 0-7.111 5.156c-.76 1.525-.568-3.253-.08-9.386a29.65 29.65 0 0 1 22.736-26.522q.11-.026.216-.05c6.257-1.443 12.71-2.506 19.086-1.756s12.734 3.502 16.714 8.54c1.82 2.303 3.105 5.02 5.136 7.138 3.568 3.723 8.857 5.078 13.715 6.805 5.495 1.954 10.836 4.634 15.04 8.677s7.182 9.583 7.27 15.414c.103 6.802-4.224 13.82-11.196 15.162-1.212.21-2.358.706-3.343 1.443-6.657 5.162.937 10.565.884 16.376-.044 4.85-5.442 8.01-10.285 8.235a19.52 19.52 0 0 1-19.437-15.442c-.73-3.98-.166-8.066.31-12.084.544-4.6-9.36-15.428-2.818-7.49 1.277 1.51 2.14 3.324 2.5 5.267 1.09 6.34-4.682 8.474-8.32 11.988a15.08 15.08 0 0 0-3.65 15.52c-6.2-5.608-7.517-14.826-3.16-21.952 1.172-1.798 2.682-3.362 3.794-5.197 1.735-2.865 2.213-9.095-2.642-8.924-3.465.122-7.065 3.007-9.73-1.093z" fill="#2f2e41"/><defs ><path id="B" d="M673.872 513.043l19.227 74.772s.712 52.697 4.985 73.348 18.515 70.5 18.515 70.5l17.09 2.848-3.56-69.787s0-42.015-3.56-51.272-10.682-103.97-10.682-103.97z"/></defs></svg>